<?xml version="1.0" encoding="UTF-8"?>
<svg xmlns="http://www.w3.org/2000/svg" height="410" width="410" class="pyqrcode"><title>1234567890</title><path fill="(255, 255, 204)" d="M0 0h410v410h-410z"/><path transform="scale(10)" stroke="#FFFFFF" class="pyqrline" d="M4 4.5h7m1 0h1m1 0h2m1 0h1m1 0h1m1 0h4m1 0h1m1 0h1m1 0h7m-33 1h1m5 0h1m3 0h1m3 0h1m1 0h2m1 0h4m3 0h1m5 0h1m-33 1h1m1 0h3m1 0h1m1 0h1m1 0h3m2 0h4m2 0h1m1 0h1m2 0h1m1 0h3m1 0h1m-33 1h1m1 0h3m1 0h1m3 0h1m1 0h1m4 0h1m3 0h1m1 0h1m2 0h1m1 0h3m1 0h1m-33 1h1m1 0h3m1 0h1m1 0h1m1 0h1m1 0h2m1 0h1m2 0h2m1 0h1m2 0h1m1 0h1m1 0h3m1 0h1m-33 1h1m5 0h1m2 0h4m2 0h2m1 0h2m1 0h2m3 0h1m5 0h1m-33 1h7m1 0h1m1 0h1m1 0h1m1 0h1m1 0h1m1 0h1m1 0h1m1 0h1m1 0h1m1 0h7m-25 1h4m2 0h1m1 0h4m4 0h1m-20 1h2m3 0h2m2 0h1m4 0h1m1 0h2m3 0h1m1 0h1m1 0h1m1 0h1m-33 1h1m2 0h2m2 0h1m1 0h2m1 0h1m2 0h3m2 0h2m1 0h1m1 0h1m1 0h3m-30 1h1m1 0h1m1 0h5m2 0h3m1 0h1m4 0h1m1 0h1m2 0h1m1 0h1m1 0h3m-32 1h1m2 0h1m1 0h1m2 0h1m2 0h1m4 0h1m1 0h4m2 0h4m2 0h1m1 0h1m-33 1h1m1 0h5m1 0h1m1 0h1m1 0h1m1 0h3m2 0h1m1 0h1m1 0h2m1 0h2m1 0h1m-30 1h1m2 0h1m7 0h6m2 0h3m1 0h5m1 0h1m2 0h1m-31 1h2m2 0h3m1 0h1m1 0h5m1 0h3m1 0h1m1 0h2m1 0h1m3 0h1m-32 1h3m1 0h1m3 0h1m3 0h1m1 0h1m1 0h4m3 0h2m3 0h3m-31 1h1m1 0h3m1 0h1m1 0h1m1 0h1m1 0h1m1 0h1m2 0h4m1 0h1m1 0h2m2 0h1m2 0h2m-32 1h1m3 0h1m1 0h1m2 0h3m3 0h1m2 0h2m2 0h3m1 0h1m4 0h1m-33 1h1m2 0h1m2 0h3m1 0h1m1 0h1m1 0h2m1 0h1m4 0h3m1 0h1m1 0h5m-32 1h1m3 0h1m1 0h1m1 0h1m4 0h2m1 0h1m1 0h1m2 0h5m1 0h4m-30 1h2m1 0h3m1 0h2m2 0h1m2 0h1m1 0h3m1 0h3m2 0h3m2 0h1m-33 1h2m6 0h2m2 0h1m1 0h1m1 0h3m3 0h1m3 0h3m-29 1h1m3 0h1m1 0h2m1 0h2m2 0h1m2 0h1m1 0h1m2 0h1m1 0h2m4 0h3m-32 1h1m1 0h1m1 0h2m2 0h1m1 0h1m1 0h3m1 0h2m1 0h1m3 0h1m3 0h6m-33 1h9m1 0h2m3 0h1m2 0h1m3 0h1m1 0h6m-22 1h13m1 0h3m3 0h2m2 0h1m-33 1h7m2 0h1m3 0h2m4 0h1m1 0h1m1 0h2m1 0h1m1 0h2m-30 1h1m5 0h1m1 0h2m1 0h1m2 0h1m1 0h1m7 0h1m3 0h5m-33 1h1m1 0h3m1 0h1m3 0h2m1 0h2m1 0h2m1 0h3m2 0h7m1 0h1m-33 1h1m1 0h3m1 0h1m2 0h9m1 0h1m1 0h3m3 0h2m2 0h1m-32 1h1m1 0h3m1 0h1m3 0h1m2 0h1m2 0h5m2 0h2m3 0h2m1 0h2m-33 1h1m5 0h1m3 0h3m1 0h2m1 0h3m2 0h2m1 0h1m3 0h2m-31 1h7m2 0h3m3 0h1m3 0h1m1 0h5m3 0h1m1 0h1"/></svg>
